# xmcd
#
# Track frame offsets:
#	150
#	20602
#	40912
#	68690
#	95457
#	116532
#	141022
#	164657
#	189750
#	212345
#
# Disc length: 3159 seconds
#
# Revision: 2
# Processed by: cddbd v1.5.2PL0 Copyright (c) Steve Scherf et al.
# Submitted via: EZCDAudioConverter 8.0.2.1
#
DISCID=800c550a
DTITLE=Chế Linh, Thanh Tuyền, Duy Khánh, Hương Lan - Ngày Xưa Em Nói
DYEAR=1993
DGENRE=Pop
TTITLE0=Duy Khánh - Người đầu gió
TTITLE1=Hương Lan - Nước non gàn dặm ra đi
TTITLE2=Chế Linh - Cho xin sống lại
TTITLE3=Thanh Tuyền - Tiếng còi trong sương đêm
TTITLE4=Duy Khánh - Trăng phương Nam
TTITLE5=Chế Linh, Thanh Tuyền - Ngày Xưa Em Nói
TTITLE6=Hương Lan - Hoa trắng thôi cài lên áo tím
TTITLE7=Duy Khánh - Mùa đông binh sĩ
TTITLE8=Thanh Tuyền - Gió chuyển mùa thương
TTITLE9=Chế Linh - Đêm hỏa châu
EXTD=
EXTT0=
EXTT1=
EXTT2=
EXTT3=
EXTT4=
EXTT5=
EXTT6=
EXTT7=
EXTT8=
EXTT9=
PLAYORDER=
